<svg width="678" height="231" viewBox="0 0 678 231" fill="none" xmlns="http://www.w3.org/2000/svg">
<path d="M206.275 157.903L212.76 156.281V87.1152L206.275 85.4941V83.873H235.455C246.406 83.873 254.44 85.6382 259.555 89.1686C264.743 92.6269 267.336 97.1659 267.336 102.786C267.336 106.676 266.219 109.81 263.986 112.188C261.753 114.566 258.907 116.331 255.448 117.484C251.774 118.78 247.811 119.465 243.56 119.537V120.077C248.82 120.293 253.395 121.086 257.286 122.455C261.248 123.752 264.526 125.769 267.12 128.507C269.786 131.245 271.119 134.739 271.119 138.99C271.119 145.402 268.489 150.446 263.229 154.12C257.97 157.722 249.432 159.524 237.616 159.524H206.275V157.903ZM235.455 118.456C237.833 118.456 240.03 117.808 242.047 116.511C244.137 115.142 245.794 113.269 247.019 110.891C248.316 108.441 248.964 105.74 248.964 102.786C248.964 99.6156 248.316 96.8057 247.019 94.3561C245.794 91.9064 244.137 89.9971 242.047 88.6282C240.03 87.2593 237.833 86.5749 235.455 86.5749H230.592V118.456H235.455ZM237.616 156.822C242.083 156.822 245.722 155.237 248.532 152.067C251.342 148.897 252.746 144.538 252.746 138.99C252.746 133.442 251.342 129.083 248.532 125.913C245.722 122.743 242.083 121.158 237.616 121.158H230.592V156.822H237.616Z" fill="white"/>
<path d="M273.246 157.903L279.731 156.281V87.1152L273.246 85.4941V83.873H287.296C293.78 83.873 297.022 87.1152 297.022 93.5996V156.281L303.507 157.903V159.524H273.246V157.903Z" fill="white"/>
<path d="M333.21 161.145C324.276 161.145 317.251 158.623 312.136 153.58C307.092 148.464 304.571 141.44 304.571 132.506C304.571 123.572 307.092 116.583 312.136 111.54C317.251 106.424 324.276 103.866 333.21 103.866C342.144 103.866 349.132 106.424 354.176 111.54C359.291 116.583 361.849 123.572 361.849 132.506C361.849 141.44 359.291 148.464 354.176 153.58C349.132 158.623 342.144 161.145 333.21 161.145ZM333.21 158.983C336.092 158.983 338.505 156.966 340.451 152.931C342.468 148.897 343.477 142.088 343.477 132.506C343.477 122.923 342.468 116.115 340.451 112.08C338.505 108.045 336.092 106.028 333.21 106.028C330.328 106.028 327.878 108.045 325.861 112.08C323.915 116.115 322.943 122.923 322.943 132.506C322.943 142.088 323.915 148.897 325.861 152.931C327.878 156.966 330.328 158.983 333.21 158.983Z" fill="white"/>
<path d="M390.526 161.145C386.059 161.145 382.06 160.172 378.53 158.227C376.801 157.29 375.396 156.282 374.315 155.201C373.162 156.786 371.902 158.011 370.533 158.875C369.884 159.308 369.164 159.704 368.371 160.064H365.669V141.692H369.992C370.929 144.718 372.298 147.528 374.099 150.121C377.918 155.669 382.673 158.443 388.365 158.443C391.391 158.443 393.66 157.722 395.173 156.281C396.758 154.768 397.551 152.607 397.551 149.797C397.551 147.42 396.47 145.438 394.309 143.853C392.219 142.196 388.905 140.179 384.366 137.801C380.475 135.856 377.305 134.127 374.856 132.614C372.478 131.029 370.425 129.083 368.695 126.778C367.038 124.4 366.21 121.626 366.21 118.456C366.21 114.133 368.047 110.639 371.721 107.973C375.468 105.235 381.196 103.866 388.905 103.866C392.723 103.866 396.254 104.875 399.496 106.892C401.081 107.829 402.45 108.802 403.603 109.81C404.539 108.514 405.8 107.289 407.385 106.136C408.61 105.415 409.331 105.019 409.547 104.947H412.249V123.319H407.926C406.845 120.221 405.512 117.448 403.927 114.998C400.325 109.378 396.038 106.568 391.066 106.568C389.121 106.568 387.464 107.289 386.095 108.73C384.726 110.171 384.042 111.972 384.042 114.133C384.042 116.871 385.194 119.177 387.5 121.05C389.806 122.851 393.3 124.941 397.983 127.318C401.802 129.263 404.828 130.993 407.061 132.506C409.367 133.947 411.312 135.748 412.897 137.909C414.554 140.071 415.383 142.592 415.383 145.474C415.383 155.921 407.097 161.145 390.526 161.145Z" fill="white"/>
<path d="M443.486 161.145C439.019 161.145 435.02 160.172 431.49 158.227C429.76 157.29 428.356 156.282 427.275 155.201C426.122 156.786 424.861 158.011 423.492 158.875C422.844 159.308 422.123 159.704 421.331 160.064H418.629V141.692H422.952C423.889 144.718 425.257 147.528 427.059 150.121C430.877 155.669 435.632 158.443 441.324 158.443C444.35 158.443 446.62 157.722 448.133 156.281C449.718 154.768 450.51 152.607 450.51 149.797C450.51 147.42 449.43 145.438 447.268 143.853C445.179 142.196 441.865 140.179 437.326 137.801C433.435 135.856 430.265 134.127 427.815 132.614C425.438 131.029 423.384 129.083 421.655 126.778C419.998 124.4 419.169 121.626 419.169 118.456C419.169 114.133 421.007 110.639 424.681 107.973C428.428 105.235 434.155 103.866 441.865 103.866C445.683 103.866 449.213 104.875 452.456 106.892C454.041 107.829 455.41 108.802 456.562 109.81C457.499 108.514 458.76 107.289 460.345 106.136C461.57 105.415 462.29 105.019 462.506 104.947H465.208V123.319H460.885C459.805 120.221 458.472 117.448 456.887 114.998C453.284 109.378 448.997 106.568 444.026 106.568C442.081 106.568 440.424 107.289 439.055 108.73C437.686 110.171 437.001 111.972 437.001 114.133C437.001 116.871 438.154 119.177 440.46 121.05C442.765 122.851 446.26 124.941 450.943 127.318C454.761 129.263 457.787 130.993 460.021 132.506C462.326 133.947 464.272 135.748 465.857 137.909C467.514 140.071 468.342 142.592 468.342 145.474C468.342 155.921 460.057 161.145 443.486 161.145Z" fill="white"/>
<path d="M499.687 161.145C490.753 161.145 483.729 158.623 478.613 153.58C473.57 148.464 471.048 141.44 471.048 132.506C471.048 123.572 473.57 116.583 478.613 111.54C483.729 106.424 490.753 103.866 499.687 103.866C508.621 103.866 515.61 106.424 520.653 111.54C525.769 116.583 528.327 123.572 528.327 132.506C528.327 141.44 525.769 148.464 520.653 153.58C515.61 158.623 508.621 161.145 499.687 161.145ZM499.687 158.983C502.569 158.983 504.983 156.966 506.928 152.931C508.946 148.897 509.954 142.088 509.954 132.506C509.954 122.923 508.946 116.115 506.928 112.08C504.983 108.045 502.569 106.028 499.687 106.028C496.806 106.028 494.356 108.045 492.339 112.08C490.393 116.115 489.421 122.923 489.421 132.506C489.421 142.088 490.393 148.897 492.339 152.931C494.356 156.966 496.806 158.983 499.687 158.983Z" fill="white"/>
<path d="M531.607 157.903L538.091 156.281V108.73L531.607 107.109V105.488H541.333C545.584 105.488 548.934 106.856 551.384 109.594C552.321 110.675 553.113 112.008 553.762 113.593C554.842 111.576 555.995 109.954 557.22 108.73C560.462 105.488 564.173 103.866 568.351 103.866C572.53 103.866 576.205 104.803 579.375 106.676C582.545 108.478 584.994 110.963 586.724 114.133C587.804 112.044 588.957 110.351 590.182 109.054C593.496 105.596 597.207 103.866 601.313 103.866C605.132 103.866 608.554 104.659 611.58 106.244C614.678 107.829 617.056 109.991 618.713 112.728C620.442 115.466 621.307 118.456 621.307 121.698V156.281L627.791 157.903V159.524H613.742C607.257 159.524 604.015 156.281 604.015 149.797V121.698C604.015 117.015 603.295 113.521 601.854 111.215C600.413 108.838 598.792 107.649 596.991 107.649C594.901 107.649 592.776 109.09 590.614 111.972C589.75 113.341 588.993 114.782 588.345 116.295V156.281L594.829 157.903V159.524H564.569V157.903L571.053 156.281V121.698C571.053 117.015 570.333 113.521 568.892 111.215C567.451 108.838 565.83 107.649 564.028 107.649C561.939 107.649 559.814 109.09 557.652 111.972C556.788 113.341 556.031 114.782 555.383 116.295V156.281L561.867 157.903V159.524H531.607V157.903Z" fill="white"/>
<path fill-rule="evenodd" clip-rule="evenodd" d="M118.309 180.159C117.612 180.297 116.889 180.342 116.156 180.287C93.5183 178.569 72.0911 166.065 59.8828 144.919C47.6743 123.774 47.559 98.9644 57.391 78.5002C58.8184 75.5292 61.9127 73.7427 65.1994 73.9921C73.6355 74.6322 81.9035 76.7703 89.589 80.2952C95.3881 68.9877 103.968 59.3415 114.426 52.2592C117.155 50.411 120.725 50.411 123.454 52.2592C133.77 59.2453 142.258 68.7262 148.053 79.8355C155.447 76.584 163.356 74.6039 171.419 73.9921C174.706 73.7427 177.8 75.5292 179.227 78.5002C189.059 98.9644 188.944 123.774 176.736 144.919C164.527 166.065 143.1 178.569 120.462 180.287C119.729 180.342 119.006 180.297 118.309 180.159ZM134.895 167.341C148.465 162.726 160.467 153.36 168.189 139.985C178.468 122.181 178.803 101.363 170.879 83.9433C164.373 84.5745 158.004 86.2386 152.03 88.866C154.944 96.8829 156.534 105.536 156.534 114.56C156.534 135.127 148.276 153.766 134.895 167.341ZM139.316 84.4243C134.475 75.1302 127.461 67.1436 118.94 61.1347C110.236 67.2723 103.105 75.4732 98.2554 85.0232C105.974 89.9591 112.831 96.4521 118.309 104.364C124.012 96.1279 131.209 89.4294 139.316 84.4243ZM123.9 113.935C128.859 105.477 135.537 98.6421 143.239 93.6214C145.462 100.195 146.666 107.237 146.666 114.56C146.666 131.466 140.248 146.875 129.697 158.482C132.552 143.82 130.825 128.204 123.9 113.935ZM112.718 113.935C107.983 105.857 101.678 99.26 94.4119 94.3097C92.3354 100.686 91.2136 107.492 91.2136 114.56C91.2136 130.599 96.99 145.291 106.592 156.667C104.218 142.537 106.078 127.617 112.718 113.935ZM118.309 163.305C122.014 151.525 122.166 138.673 118.309 126.49C114.452 138.673 114.605 151.525 118.309 163.305ZM68.429 139.985C76.502 153.968 89.2528 163.569 103.582 167.94C89.8494 154.317 81.3453 135.432 81.3453 114.56C81.3453 105.719 82.8712 97.2349 85.6739 89.3558C79.3875 86.4447 72.6411 84.6129 65.739 83.9433C57.8154 101.363 58.1501 122.181 68.429 139.985Z" fill="white"/>
</svg>
