<?xml version="1.0" encoding="UTF-8" standalone="no" ?>
<!DOCTYPE svg PUBLIC "-//W3C//DTD SVG 1.1//EN" "http://www.w3.org/Graphics/SVG/1.1/DTD/svg11.dtd">
<svg xmlns="http://www.w3.org/2000/svg" xmlns:xlink="http://www.w3.org/1999/xlink" version="1.1" width="640" height="480" viewBox="0 0 640 480" xml:space="preserve">
<desc>Created with Fabric.js 3.6.3</desc>
<defs>
</defs>
<g transform="matrix(1.56 0 0 1.53 737.46 264.07)"  >
<path style="stroke: none; stroke-width: 1; stroke-dasharray: none; stroke-linecap: butt; stroke-dashoffset: 0; stroke-linejoin: miter; stroke-miterlimit: 4; fill: rgb(0,0,0); fill-rule: nonzero; opacity: 1;"  transform=" translate(-443.49, -132.07)" d="M 443.486 160.708 C 439.019 160.708 435.02 159.736 431.49 157.79 C 429.76 156.854 428.356 155.845 427.275 154.764 C 426.122 156.349 424.861 157.574 423.492 158.439 C 422.844 158.871 422.123 159.267 421.331 159.628 H 418.629 V 141.255 H 422.952 C 423.889 144.281 425.257 147.091 427.059 149.685 C 430.877 155.233 435.632 158.006 441.324 158.006 C 444.35 158.006 446.62 157.286 448.133 155.845 C 449.718 154.332 450.51 152.171 450.51 149.361 C 450.51 146.983 449.43 145.002 447.268 143.417 C 445.179 141.76 441.865 139.742 437.326 137.365 C 433.435 135.419 430.265 133.69 427.815 132.177 C 425.438 130.592 423.384 128.647 421.655 126.341 C 419.998 123.964 419.169 121.19 419.169 118.02 C 419.169 113.697 421.007 110.202 424.681 107.537 C 428.428 104.799 434.155 103.43 441.865 103.43 C 445.683 103.43 449.213 104.439 452.456 106.456 C 454.041 107.393 455.41 108.365 456.562 109.374 C 457.499 108.077 458.76 106.852 460.345 105.699 C 461.57 104.979 462.29 104.583 462.506 104.511 H 465.208 V 122.883 H 460.885 C 459.805 119.785 458.472 117.011 456.887 114.561 C 453.284 108.942 448.997 106.132 444.026 106.132 C 442.081 106.132 440.424 106.852 439.055 108.293 C 437.686 109.734 437.001 111.535 437.001 113.697 C 437.001 116.435 438.154 118.74 440.46 120.613 C 442.765 122.415 446.26 124.504 450.943 126.882 C 454.761 128.827 457.787 130.556 460.021 132.069 C 462.326 133.51 464.272 135.311 465.857 137.473 C 467.514 139.634 468.342 142.156 468.342 145.038 C 468.342 155.485 460.057 160.708 443.486 160.708 Z" stroke-linecap="round" />
</g>
<g transform="matrix(1.56 0 0 1.53 825.13 264.07)"  >
<path style="stroke: none; stroke-width: 1; stroke-dasharray: none; stroke-linecap: butt; stroke-dashoffset: 0; stroke-linejoin: miter; stroke-miterlimit: 4; fill: rgb(0,0,0); fill-rule: nonzero; opacity: 1;"  transform=" translate(-499.69, -132.07)" d="M 499.687 160.708 C 490.753 160.708 483.729 158.187 478.613 153.143 C 473.57 148.028 471.048 141.003 471.048 132.069 C 471.048 123.135 473.57 116.146 478.613 111.103 C 483.729 105.988 490.753 103.43 499.687 103.43 C 508.621 103.43 515.61 105.988 520.653 111.103 C 525.769 116.146 528.327 123.135 528.327 132.069 C 528.327 141.003 525.769 148.028 520.653 153.143 C 515.61 158.187 508.621 160.708 499.687 160.708 Z M 499.687 158.547 C 502.569 158.547 504.983 156.529 506.928 152.495 C 508.946 148.46 509.954 141.651 509.954 132.069 C 509.954 122.487 508.946 115.678 506.928 111.643 C 504.983 107.609 502.569 105.591 499.687 105.591 C 496.806 105.591 494.356 107.609 492.339 111.643 C 490.393 115.678 489.421 122.487 489.421 132.069 C 489.421 141.651 490.393 148.46 492.339 152.495 C 494.356 156.529 496.806 158.547 499.687 158.547 Z" stroke-linecap="round" />
</g>
<g transform="matrix(1.56 0 0 1.53 949.95 262.83)"  >
<path style="stroke: none; stroke-width: 1; stroke-dasharray: none; stroke-linecap: butt; stroke-dashoffset: 0; stroke-linejoin: miter; stroke-miterlimit: 4; fill: rgb(0,0,0); fill-rule: nonzero; opacity: 1;"  transform=" translate(-579.7, -131.26)" d="M 531.607 157.466 L 538.091 155.845 V 108.293 L 531.607 106.672 V 105.051 H 541.333 C 545.584 105.051 548.934 106.42 551.384 109.158 C 552.321 110.238 553.113 111.571 553.762 113.156 C 554.842 111.139 555.995 109.518 557.22 108.293 C 560.462 105.051 564.173 103.43 568.351 103.43 C 572.53 103.43 576.205 104.367 579.375 106.24 C 582.545 108.041 584.994 110.527 586.724 113.697 C 587.804 111.607 588.957 109.914 590.182 108.617 C 593.496 105.159 597.207 103.43 601.313 103.43 C 605.132 103.43 608.554 104.222 611.58 105.807 C 614.678 107.393 617.056 109.554 618.713 112.292 C 620.442 115.03 621.307 118.02 621.307 121.262 V 155.845 L 627.791 157.466 V 159.087 H 613.742 C 607.257 159.087 604.015 155.845 604.015 149.361 V 121.262 C 604.015 116.579 603.295 113.084 601.854 110.779 C 600.413 108.401 598.792 107.212 596.991 107.212 C 594.901 107.212 592.776 108.653 590.614 111.535 C 589.75 112.904 588.993 114.345 588.345 115.858 V 155.845 L 594.829 157.466 V 159.087 H 564.569 V 157.466 L 571.053 155.845 V 121.262 C 571.053 116.579 570.333 113.084 568.892 110.779 C 567.451 108.401 565.83 107.212 564.028 107.212 C 561.939 107.212 559.814 108.653 557.652 111.535 C 556.788 112.904 556.031 114.345 555.383 115.858 V 155.845 L 561.867 157.466 V 159.087 H 531.607 V 157.466 Z" stroke-linecap="round" />
</g>
<g transform="matrix(2.23 0 0 2.18 294.59 227.41)"  >
<path style="stroke: none; stroke-width: 1; stroke-dasharray: none; stroke-linecap: butt; stroke-dashoffset: 0; stroke-linejoin: miter; stroke-miterlimit: 4; fill: rgb(0,0,0); fill-rule: evenodd; opacity: 1;"  transform=" translate(-118.31, -115.15)" d="M 118.309 179.723 C 117.612 179.86 116.889 179.906 116.156 179.85 C 93.5183 178.132 72.0911 165.628 59.8828 144.483 C 47.6743 123.337 47.559 98.5279 57.391 78.0637 C 58.8184 75.0927 61.9127 73.3062 65.1994 73.5556 C 73.6355 74.1957 81.9035 76.3337 89.589 79.8587 C 95.3881 68.5512 103.968 58.905 114.426 51.8227 C 117.155 49.9745 120.725 49.9745 123.454 51.8227 C 133.77 58.8088 142.258 68.2897 148.053 79.399 C 155.447 76.1475 163.356 74.1674 171.419 73.5556 C 174.706 73.3062 177.8 75.0927 179.227 78.0637 C 189.059 98.5279 188.944 123.337 176.736 144.483 C 164.527 165.628 143.1 178.132 120.462 179.85 C 119.729 179.906 119.006 179.86 118.309 179.723 Z M 134.895 166.904 C 148.465 162.289 160.467 152.924 168.189 139.549 C 178.468 121.745 178.803 100.926 170.879 83.5068 C 164.373 84.138 158.004 85.8021 152.03 88.4295 C 154.944 96.4464 156.534 105.099 156.534 114.124 C 156.534 134.691 148.276 153.329 134.895 166.904 Z M 139.316 83.9878 C 134.475 74.6937 127.461 66.7071 118.94 60.6982 C 110.236 66.8358 103.105 75.0367 98.2554 84.5867 C 105.974 89.5226 112.831 96.0156 118.309 103.927 C 124.012 95.6914 131.209 88.9929 139.316 83.9878 Z M 123.9 113.498 C 128.859 105.04 135.537 98.2055 143.239 93.1849 C 145.462 99.7588 146.666 106.801 146.666 114.124 C 146.666 131.03 140.248 146.439 129.697 158.046 C 132.552 143.384 130.825 127.768 123.9 113.498 Z M 112.718 113.498 C 107.983 105.42 101.678 98.8235 94.4119 93.8732 C 92.3354 100.249 91.2136 107.056 91.2136 114.124 C 91.2136 130.163 96.99 144.855 106.592 156.23 C 104.218 142.1 106.078 127.181 112.718 113.498 Z M 118.309 162.869 C 122.014 151.088 122.166 138.237 118.309 126.054 C 114.452 138.237 114.605 151.088 118.309 162.869 Z M 68.429 139.549 C 76.502 153.531 89.2528 163.132 103.582 167.504 C 89.8494 153.881 81.3453 134.995 81.3453 114.124 C 81.3453 105.283 82.8712 96.7984 85.6739 88.9192 C 79.3875 86.0082 72.6411 84.1763 65.739 83.5068 C 57.8154 100.926 58.1501 121.745 68.429 139.549 Z" stroke-linecap="round" />
</g>
</svg>